<svg xmlns="http://www.w3.org/2000/svg" viewBox="0 0 1400 760" role="img" aria-labelledby="title desc"><title id="title">United States road-trip map</title><desc id="desc">A neutral map of the United States used behind the live trip route.</desc><rect width="1400" height="760" fill="#d6e2e3"/><g fill="#f3efe4" stroke="#aab4a8" stroke-width="1.25"><path d="M1268.1,214.9 L1268.7,215.4 L1268.3,218.1 L1271.1,219.5 L1274.1,223.7 L1271.4,222.6 L1270.5,224.8 L1263.7,225.3 L1262.9,226.7 L1260.6,226.6 L1260.2,228.5 L1258.8,228.4 L1257.6,229.6 L1231.0,228.8 L1228.7,225.4 L1229.3,222.7 L1231.3,221.3 L1231.0,217.5 L1232.4,213.1 L1232.8,206.1 L1234.0,205.3 L1234.6,202.5 L1236.8,200.7 L1237.3,198.2 L1239.4,195.5 L1238.8,194.8 L1240.8,192.5 L1239.9,187.3 L1240.8,185.9 L1245.7,185.1 L1246.2,183.9 L1248.3,183.5 L1251.2,181.1 L1250.7,179.6 L1252.1,178.8 L1249.9,174.4 L1253.1,170.3 L1252.0,168.1 L1253.7,167.4 L1252.8,166.4 L1255.3,162.2 L1254.2,161.3 L1255.6,161.4 L1257.9,159.6 L1259.1,161.0 L1261.0,161.3 L1262.5,159.5 L1265.5,206.7 L1264.7,211.0 L1268.1,214.9"/><path d="M142.5,270.3 L142.5,328.9 L199.7,376.8 L265.4,436.4 L265.3,439.8 L269.1,444.2 L271.1,449.1 L271.0,451.0 L275.8,453.9 L276.9,456.2 L269.9,461.0 L269.8,462.7 L267.6,465.1 L268.5,471.1 L267.7,472.0 L267.9,475.3 L265.1,479.0 L263.3,479.3 L263.9,480.7 L263.1,482.1 L264.5,483.2 L263.7,487.8 L264.6,489.3 L268.0,489.4 L269.1,490.9 L269.1,494.3 L267.8,496.7 L206.5,502.8 L206.1,500.4 L204.1,499.4 L203.8,492.8 L202.6,488.2 L200.5,484.5 L185.4,471.4 L181.0,472.4 L177.6,470.7 L177.2,468.6 L178.0,467.4 L175.5,463.6 L169.6,464.7 L161.7,462.2 L160.4,461.6 L157.7,456.9 L152.0,453.6 L149.0,454.3 L139.1,451.9 L132.0,452.8 L130.5,452.0 L129.7,450.2 L126.9,449.2 L126.2,447.8 L127.3,444.6 L126.4,443.2 L127.1,440.8 L125.7,439.1 L126.7,433.8 L121.5,431.4 L120.5,429.7 L121.1,425.9 L118.6,425.1 L115.0,420.7 L112.2,419.6 L110.6,415.9 L105.1,410.1 L102.9,406.1 L97.6,401.9 L95.7,394.0 L96.7,392.1 L94.9,385.1 L88.1,380.9 L86.1,377.9 L86.0,373.3 L83.5,369.3 L83.2,361.5 L79.1,359.4 L76.3,356.5 L74.9,357.4 L72.2,356.9 L71.8,355.6 L73.4,351.8 L70.0,345.4 L65.5,342.1 L62.1,337.5 L55.8,331.8 L55.2,330.0 L56.3,327.8 L53.3,319.6 L54.7,314.2 L53.2,308.0 L47.9,302.1 L47.4,300.4 L41.5,296.0 L41.1,292.3 L39.9,290.6 L46.4,276.5 L46.7,275.2 L45.1,271.6 L47.2,267.4 L45.4,266.0 L46.2,264.9 L47.7,264.9 L47.9,263.6 L46.0,256.9 L40.8,253.0 L41.7,251.4 L44.4,252.1 L44.3,249.1 L43.4,248.4 L142.5,248.5 L142.5,270.3"/><path d="M69.8,361.8 L70.8,360.7 L72.2,360.8 L74.9,363.0 L75.1,364.5 L72.9,365.2 L69.8,361.8"/><path d="M162.7,476.6 L165.4,475.8 L166.2,477.6 L165.6,478.8 L163.7,479.0 L162.7,476.6"/><path d="M173.0,477.1 L173.9,476.0 L176.2,475.9 L180.1,477.7 L182.4,480.4 L182.6,482.5 L180.8,483.5 L177.1,482.7 L173.0,477.1"/><path d="M172.7,489.1 L173.8,487.9 L175.9,488.2 L181.5,494.3 L181.5,495.6 L177.6,496.6 L175.6,494.8 L172.7,489.1"/><path d="M154.1,463.8 L149.2,465.7 L146.3,466.0 L144.7,464.9 L139.6,467.5 L135.6,464.2 L131.3,463.7 L129.2,460.4 L130.2,459.3 L132.9,459.0 L136.7,461.7 L141.5,460.9 L142.7,461.6 L144.1,459.8 L150.4,461.4 L152.6,460.4 L154.7,461.6 L157.5,461.4 L158.6,462.5 L156.7,464.5 L154.1,463.8"/><path d="M150.8,482.6 L153.5,481.2 L156.7,483.0 L157.1,484.2 L156.3,485.3 L153.7,485.7 L151.5,484.6 L150.8,482.6"/><path d="M1185.1,320.9 L1181.4,325.1 L1178.9,329.8 L1172.5,334.6 L1165.5,322.2 L1160.0,316.7 L1161.1,313.7 L1160.0,312.0 L1162.5,308.1 L1165.0,306.2 L1169.6,305.2 L1169.9,303.1 L1179.1,298.1 L1173.6,291.4 L1171.5,290.8 L1171.2,287.5 L1168.4,286.6 L1168.8,283.9 L1168.1,283.5 L1168.3,281.9 L1171.6,278.8 L1169.8,275.5 L1173.5,272.9 L1177.5,266.6 L1179.8,265.6 L1198.1,275.3 L1194.4,284.6 L1191.3,284.8 L1189.8,288.4 L1190.5,289.3 L1196.2,288.1 L1198.3,289.1 L1198.2,293.7 L1194.8,308.8 L1189.1,318.3 L1187.3,320.3 L1185.1,320.9"/><path d="M1194.6,283.5 L1194.7,283.6 L1194.7,283.5 L1194.6,283.5"/><path d="M1194.8,283.3 L1194.8,283.3 L1194.8,283.3 L1194.8,283.3"/><path d="M1027.0,432.0 L1034.6,432.4 L1034.5,435.2 L1036.9,433.6 L1040.4,438.1 L1040.1,441.3 L1065.7,441.7 L1092.7,468.3 L1088.2,469.9 L1083.3,474.3 L1079.2,480.3 L1078.5,483.5 L1079.3,485.6 L1075.0,488.9 L1073.8,491.4 L1069.9,492.0 L1059.1,501.9 L1052.8,504.4 L1049.3,509.5 L1041.2,514.8 L1040.4,517.1 L1035.3,514.3 L1032.8,513.9 L1032.8,511.8 L1031.8,510.5 L1032.5,508.0 L1030.7,505.7 L1031.1,504.6 L1025.8,500.1 L1026.4,499.5 L1025.6,498.2 L1025.9,495.1 L1023.9,491.9 L1024.2,489.9 L1018.2,486.2 L1017.8,484.3 L1015.9,483.5 L1016.0,481.9 L1013.9,480.9 L1014.2,477.7 L1008.3,473.5 L1005.1,468.1 L999.8,464.8 L996.1,459.2 L992.9,451.1 L988.8,450.3 L986.0,447.1 L981.5,444.5 L982.6,441.3 L987.1,438.2 L987.1,436.4 L995.2,434.6 L996.9,433.0 L1002.5,432.0 L1003.5,430.7 L1004.0,431.6 L1027.0,432.0"/><path d="M895.5,92.0 L947.1,117.0 L949.3,123.8 L954.0,128.5 L963.8,126.6 L963.4,129.6 L964.3,134.4 L967.8,139.3 L970.7,137.7 L974.6,137.6 L976.6,138.0 L979.7,140.9 L975.1,146.9 L978.6,147.0 L1000.6,158.7 L1009.7,205.6 L1002.1,223.5 L1000.6,231.8 L997.4,233.8 L993.5,238.3 L987.8,240.1 L986.7,241.9 L986.2,247.3 L987.1,249.4 L980.1,255.5 L948.3,256.5 L948.3,254.8 L893.3,254.8 L897.6,235.1 L894.7,211.3 L895.4,201.7 L897.8,191.0 L905.2,170.9 L909.5,165.5 L915.2,161.4 L903.7,155.8 L895.7,155.8 L894.1,158.2 L888.8,162.3 L887.9,165.7 L882.9,164.8 L881.1,162.4 L883.0,157.8 L877.7,158.2 L879.9,154.3 L879.0,152.6 L880.3,151.9 L879.2,150.3 L880.1,149.4 L878.0,147.5 L872.2,146.0 L873.6,144.3 L872.8,143.0 L863.4,140.3 L859.8,141.2 L850.2,137.1 L826.6,131.8 L824.4,127.4 L819.8,125.6 L841.2,86.7 L844.5,87.8 L859.7,80.5 L866.7,78.9 L895.5,92.0"/><path d="M807.5,460.1 L809.4,460.9 L809.0,462.5 L806.7,462.8 L807.0,464.3 L806.0,463.2 L804.4,463.5 L804.5,464.5 L806.2,465.0 L804.8,467.1 L806.7,469.3 L803.1,469.5 L803.5,471.0 L805.1,471.0 L805.7,472.1 L804.3,472.5 L802.8,471.2 L801.2,471.8 L803.5,473.9 L801.1,475.0 L802.3,476.7 L801.1,478.4 L802.4,478.2 L802.6,476.8 L803.4,477.2 L803.4,478.6 L801.7,479.3 L803.1,480.0 L805.1,478.2 L803.2,480.8 L804.0,483.7 L805.5,482.8 L804.2,484.3 L804.5,486.5 L801.8,486.8 L803.7,488.6 L802.7,490.1 L736.8,489.7 L736.8,475.3 L736.1,474.4 L734.8,475.4 L733.6,474.2 L732.8,474.6 L733.3,475.3 L732.0,475.2 L732.2,474.3 L729.0,475.6 L729.1,474.5 L728.3,474.9 L727.0,474.0 L727.5,472.9 L726.7,473.0 L727.9,425.9 L723.6,396.1 L825.9,396.2 L826.2,398.4 L827.9,399.2 L827.9,401.4 L822.0,407.1 L820.7,409.7 L835.5,409.5 L837.5,412.5 L835.2,411.9 L834.6,413.2 L836.3,414.4 L834.4,414.8 L833.4,416.4 L830.3,416.9 L831.1,418.7 L832.8,418.7 L830.3,420.6 L831.5,422.5 L828.7,421.5 L828.3,422.9 L829.3,424.9 L828.1,426.0 L827.8,423.9 L826.9,423.6 L825.3,426.1 L826.2,426.3 L826.4,425.3 L827.5,426.1 L826.8,428.2 L825.5,428.9 L827.3,429.8 L827.6,430.7 L826.7,431.4 L827.8,432.7 L825.5,433.2 L824.6,435.7 L822.6,435.4 L822.3,436.6 L823.8,438.6 L822.3,440.6 L819.3,441.1 L819.4,439.6 L818.4,439.6 L819.1,443.4 L817.5,443.8 L818.1,442.6 L816.9,442.0 L816.3,444.1 L818.8,444.9 L817.1,446.5 L816.3,444.7 L815.8,446.6 L817.0,448.4 L815.8,450.1 L816.0,452.2 L814.3,453.2 L814.0,454.9 L813.9,453.3 L811.9,453.5 L812.5,455.5 L810.3,455.9 L810.0,457.8 L808.1,456.7 L808.4,458.0 L810.9,458.9 L810.0,459.6 L808.5,458.8 L807.5,460.1"/><path d="M865.3,510.9 L864.3,519.9 L866.3,566.5 L856.4,564.9 L854.5,566.2 L854.8,567.0 L848.0,565.1 L840.9,566.5 L839.0,565.9 L837.4,563.0 L837.8,561.7 L836.6,558.6 L833.9,556.0 L833.6,553.6 L832.8,553.0 L835.5,543.8 L791.9,543.9 L793.6,542.5 L792.1,540.7 L793.0,538.8 L791.5,537.0 L794.7,536.4 L793.3,532.9 L794.0,532.3 L794.5,533.8 L795.6,534.0 L794.5,529.9 L797.2,528.4 L795.2,528.1 L794.7,527.0 L797.3,527.2 L798.0,523.8 L800.4,523.6 L798.1,523.5 L798.6,521.2 L799.7,520.8 L800.7,522.0 L800.3,520.7 L802.3,519.3 L802.2,518.0 L804.7,516.6 L802.8,515.1 L804.6,515.7 L806.4,513.1 L805.1,512.2 L805.2,513.7 L802.7,513.5 L802.7,511.7 L805.6,510.5 L806.6,511.9 L806.9,509.1 L808.3,509.0 L809.3,507.0 L808.5,507.9 L806.6,507.5 L807.2,505.2 L803.8,504.1 L804.3,502.3 L805.6,503.9 L806.8,503.7 L804.6,502.1 L806.3,500.8 L806.1,499.8 L803.7,501.3 L803.0,500.4 L805.2,497.7 L802.7,496.8 L803.1,494.4 L805.0,492.8 L804.5,490.8 L803.4,490.7 L803.0,492.8 L801.6,492.1 L803.7,488.7 L801.9,486.8 L804.5,486.5 L804.2,484.3 L805.4,483.0 L804.7,482.5 L804.2,483.8 L803.2,482.1 L805.1,478.2 L803.1,480.0 L801.7,479.3 L803.4,478.6 L803.4,477.2 L802.6,476.8 L802.4,478.2 L801.1,478.4 L802.3,476.7 L801.1,475.0 L803.5,473.9 L801.2,471.8 L802.8,471.2 L804.3,472.5 L805.7,472.1 L805.1,471.0 L803.1,470.5 L803.4,469.1 L806.7,469.1 L804.9,467.5 L806.2,465.1 L804.5,464.4 L804.5,463.1 L807.2,464.2 L806.7,462.8 L808.9,462.6 L809.4,461.1 L807.4,459.7 L810.9,458.9 L808.6,458.1 L807.9,456.9 L810.0,457.8 L810.3,455.9 L812.5,455.5 L811.9,453.5 L813.9,453.3 L814.0,454.9 L814.3,453.2 L815.9,452.3 L815.8,450.1 L817.0,448.4 L815.8,446.6 L816.3,444.7 L817.1,446.5 L818.8,444.9 L816.3,444.1 L816.9,442.0 L818.1,442.6 L817.4,443.7 L818.5,443.8 L819.1,443.4 L818.4,439.5 L819.4,439.6 L819.3,441.1 L822.3,440.5 L823.8,438.4 L822.3,436.5 L870.6,436.5 L872.9,439.3 L865.3,510.9"/><path d="M752.1,286.5 L789.8,285.6 L794.4,289.8 L794.4,291.0 L796.9,291.9 L795.2,294.5 L794.8,298.7 L796.9,304.0 L796.5,306.2 L798.2,307.7 L798.0,309.3 L804.2,314.5 L805.6,316.9 L812.6,322.1 L814.2,330.9 L816.5,332.5 L819.3,329.8 L826.8,333.0 L824.5,336.4 L825.1,339.4 L820.9,346.8 L821.1,349.9 L826.8,355.1 L831.1,356.9 L829.9,357.8 L830.6,359.0 L833.0,358.4 L836.9,361.2 L837.1,362.5 L840.4,364.1 L841.4,366.8 L840.4,367.0 L840.4,368.3 L842.6,372.3 L840.4,375.0 L841.7,376.0 L843.5,381.5 L845.9,383.0 L846.3,382.1 L845.2,380.9 L846.4,380.8 L848.0,383.4 L850.0,383.7 L849.1,386.8 L848.2,387.3 L849.6,389.0 L847.7,389.7 L848.6,391.7 L847.2,394.1 L843.9,392.8 L841.6,397.3 L840.9,396.8 L841.3,394.3 L839.3,394.4 L840.6,399.5 L838.1,400.9 L840.0,402.8 L836.2,402.9 L838.7,405.7 L836.7,407.3 L836.1,409.5 L820.7,409.7 L822.0,407.1 L827.9,401.4 L827.9,399.2 L826.2,398.4 L825.9,396.2 L723.6,396.1 L724.3,324.9 L718.7,323.1 L717.0,320.5 L717.5,318.5 L716.2,318.5 L712.4,314.3 L713.7,313.1 L714.2,311.1 L715.5,310.5 L715.7,309.1 L718.0,309.0 L717.9,308.2 L716.4,308.2 L717.7,307.1 L716.2,306.0 L716.5,305.0 L712.0,305.5 L707.7,301.8 L705.5,301.1 L705.9,298.9 L703.9,297.1 L704.0,295.6 L699.8,293.7 L700.6,292.9 L698.9,288.5 L699.9,287.4 L697.6,287.9 L697.2,286.5 L752.1,286.5"/><path d="M484.6,60.3 L507.7,60.2 L507.9,167.8 L347.3,167.7 L347.3,181.8 L343.3,179.1 L343.5,177.9 L339.7,174.3 L339.1,175.5 L337.3,175.6 L337.7,176.7 L336.7,177.3 L336.5,178.7 L337.8,180.1 L332.4,179.5 L329.7,180.9 L328.6,179.4 L323.2,180.6 L319.1,179.3 L317.6,180.1 L316.8,182.6 L309.2,181.1 L307.8,181.6 L306.4,183.2 L307.1,184.5 L306.1,184.9 L302.6,182.4 L302.6,180.5 L300.7,178.5 L301.6,177.5 L299.8,173.8 L297.1,172.5 L294.9,173.5 L292.3,171.4 L291.3,169.3 L292.6,168.8 L292.4,166.1 L289.7,164.4 L286.9,160.7 L286.0,157.2 L285.0,156.8 L285.2,153.7 L283.6,153.7 L284.3,151.5 L282.0,151.0 L281.3,149.1 L279.5,149.0 L277.9,151.8 L274.2,153.1 L273.7,154.7 L272.3,155.4 L269.4,152.6 L266.9,152.7 L267.5,151.4 L266.9,150.6 L268.5,148.8 L266.9,147.0 L268.2,145.0 L271.0,144.0 L270.0,142.6 L270.4,141.4 L268.2,140.0 L269.3,138.2 L267.8,137.0 L269.7,136.3 L269.1,133.7 L270.1,133.1 L270.2,130.5 L271.4,129.1 L270.6,127.4 L272.0,126.9 L272.5,123.4 L266.0,123.8 L264.6,121.0 L262.3,122.1 L261.8,119.8 L259.4,119.3 L258.2,117.7 L258.7,116.2 L255.8,114.8 L253.7,111.2 L250.1,108.9 L249.6,107.1 L245.9,106.4 L243.7,104.1 L239.6,102.6 L242.6,101.1 L239.7,99.3 L241.2,98.0 L240.1,96.4 L240.4,95.3 L237.9,93.7 L237.5,91.7 L232.9,87.7 L232.9,60.2 L484.6,60.3"/><path d="M723.6,362.2 L723.6,382.7 L553.6,382.9 L553.4,302.0 L707.8,302.1 L712.8,305.8 L716.0,304.7 L716.3,306.1 L717.7,306.8 L716.4,308.2 L717.9,308.2 L718.0,309.0 L715.7,309.1 L715.5,310.5 L714.2,311.1 L712.4,314.4 L716.2,318.5 L717.5,318.5 L717.0,320.5 L718.7,323.1 L724.3,324.9 L723.6,362.2"/><path d="M913.4,350.9 L912.3,350.9 L913.3,352.3 L910.3,352.7 L911.1,353.8 L909.0,354.7 L909.3,357.7 L907.5,357.9 L906.3,360.0 L906.1,358.3 L904.2,358.6 L902.2,355.8 L897.3,358.3 L895.6,361.6 L889.2,357.5 L886.4,358.3 L884.6,356.5 L883.7,357.8 L884.7,359.1 L883.9,360.4 L882.5,360.3 L882.6,358.5 L879.0,359.1 L877.6,357.8 L876.5,358.8 L877.4,360.7 L876.4,361.9 L873.1,360.7 L874.6,360.3 L872.9,358.5 L874.9,358.7 L873.6,357.8 L874.9,356.7 L875.0,355.0 L874.2,354.6 L876.1,353.5 L874.8,353.1 L877.2,351.4 L875.7,350.4 L875.4,348.9 L876.1,349.4 L876.6,347.9 L877.2,348.6 L878.1,347.4 L878.8,348.3 L879.2,346.5 L881.0,344.8 L880.9,343.2 L883.2,342.2 L882.7,341.2 L884.0,340.0 L883.9,338.6 L886.7,335.9 L885.4,332.7 L886.3,330.2 L884.8,329.2 L884.9,327.4 L883.0,325.3 L884.9,323.1 L883.8,320.7 L885.9,319.6 L886.1,254.8 L948.3,254.8 L948.0,326.1 L946.2,327.4 L947.7,329.7 L946.7,331.4 L948.8,332.2 L947.7,333.5 L948.1,334.7 L944.0,334.9 L939.9,337.3 L937.6,335.9 L933.9,336.2 L934.2,341.4 L929.9,344.0 L928.3,347.8 L924.9,348.4 L923.1,351.3 L922.6,355.2 L920.1,356.9 L914.8,354.3 L914.7,352.1 L913.4,350.9"/><path d="M629.6,142.5 L679.1,142.6 L678.6,145.7 L672.4,151.5 L676.1,156.5 L680.0,157.6 L681.6,159.6 L681.6,208.0 L678.3,208.0 L678.2,209.3 L680.0,211.1 L679.9,213.4 L678.5,213.5 L679.0,215.2 L681.1,215.5 L682.0,218.2 L680.1,220.4 L680.6,222.6 L677.4,228.5 L680.2,231.4 L680.7,234.5 L681.8,235.1 L678.0,234.7 L675.7,232.1 L676.2,230.7 L673.8,230.4 L673.5,229.4 L671.2,228.6 L670.0,229.0 L669.6,227.9 L666.1,227.6 L663.6,225.4 L649.8,225.0 L647.6,227.5 L645.4,227.8 L642.8,225.8 L636.0,223.4 L634.8,221.5 L507.6,221.4 L507.8,142.3 L629.6,142.5"/><path d="M482.4,382.8 L393.3,382.7 L393.2,275.2 L553.4,275.2 L553.6,382.9 L482.4,382.8"/><path d="M1159.2,306.4 L1156.6,307.5 L1155.1,309.5 L1046.4,309.6 L1046.4,239.5 L1056.5,237.7 L1063.8,234.5 L1063.8,248.4 L1165.0,248.5 L1166.9,252.0 L1168.9,251.8 L1171.2,253.3 L1170.4,254.4 L1171.6,255.0 L1171.8,258.6 L1171.1,258.9 L1173.2,262.3 L1178.8,263.6 L1179.9,265.4 L1177.5,266.6 L1173.5,272.9 L1169.8,275.5 L1171.6,278.8 L1168.3,281.9 L1168.1,283.5 L1168.8,283.9 L1168.4,286.6 L1171.2,287.5 L1171.5,290.8 L1173.6,291.4 L1179.2,297.9 L1169.9,303.1 L1169.5,305.2 L1163.3,307.4 L1159.2,306.4"/><path d="M179.0,140.8 L165.7,140.9 L162.5,142.7 L152.3,142.9 L150.0,144.7 L143.3,145.6 L137.6,148.2 L131.4,149.1 L127.9,147.7 L122.0,150.4 L118.1,150.2 L116.2,151.4 L115.1,151.1 L114.6,149.7 L107.4,148.2 L99.7,149.1 L97.1,151.0 L90.6,153.1 L81.2,151.1 L79.2,150.1 L78.7,144.4 L76.4,139.2 L71.1,135.9 L65.3,136.9 L62.3,133.6 L53.8,134.5 L50.3,132.8 L50.1,133.8 L47.2,133.8 L47.6,122.9 L45.2,116.2 L45.1,111.4 L43.9,107.3 L41.4,104.1 L40.3,97.2 L38.2,96.7 L38.5,94.7 L32.6,87.8 L32.9,84.8 L31.5,82.1 L33.0,81.0 L33.5,79.2 L32.2,76.2 L33.8,75.1 L33.7,73.7 L58.2,80.7 L61.4,81.1 L68.1,79.5 L71.2,75.7 L68.8,72.4 L67.7,68.5 L73.6,66.5 L73.6,64.8 L66.4,60.2 L210.4,60.3 L210.4,129.6 L209.7,131.3 L211.5,132.9 L213.0,136.3 L211.6,138.4 L213.1,141.0 L179.0,140.8"/><path d="M767.0,489.8 L802.7,490.1 L801.6,492.0 L802.6,492.9 L803.4,492.3 L803.4,490.7 L804.4,490.7 L805.0,492.8 L803.1,494.4 L802.7,496.8 L805.2,497.7 L803.0,500.4 L803.7,501.3 L806.1,499.8 L806.3,500.8 L804.6,502.1 L806.8,503.7 L805.6,503.9 L804.3,502.3 L803.8,504.1 L807.2,505.2 L806.6,507.5 L808.5,507.9 L809.3,507.0 L808.3,509.0 L806.9,509.1 L806.6,511.9 L805.6,510.5 L802.7,511.7 L802.7,513.5 L805.2,513.7 L805.1,512.2 L806.4,513.1 L804.6,515.7 L802.8,515.1 L804.7,516.6 L802.2,518.0 L802.3,519.3 L800.3,520.7 L800.7,522.0 L799.7,520.8 L798.6,521.2 L798.1,523.5 L800.4,523.6 L798.0,523.8 L797.3,527.2 L794.7,527.0 L795.2,528.1 L797.2,528.4 L794.5,529.9 L795.6,534.0 L794.5,533.8 L794.0,532.3 L793.3,532.9 L794.7,536.4 L791.5,537.0 L793.0,538.8 L792.1,540.7 L793.6,542.5 L791.9,543.9 L835.5,543.8 L832.8,553.0 L833.6,553.6 L833.9,556.0 L836.6,558.6 L838.2,564.8 L840.6,566.5 L848.0,565.1 L850.1,566.3 L855.6,567.1 L857.6,571.3 L857.6,575.1 L856.3,578.4 L849.0,586.1 L850.5,589.6 L854.3,592.0 L854.0,594.3 L852.3,595.4 L849.9,599.4 L848.4,599.7 L846.9,598.0 L843.1,601.4 L841.7,601.3 L841.0,600.1 L841.5,594.8 L840.4,593.0 L838.3,592.3 L828.6,594.0 L825.6,596.3 L821.5,597.6 L816.7,596.7 L812.3,597.9 L808.0,597.8 L806.0,596.4 L807.0,594.4 L799.8,592.4 L796.8,589.5 L791.7,587.5 L790.2,587.9 L788.7,587.0 L786.4,587.9 L781.8,583.4 L776.8,584.7 L769.3,583.5 L755.6,578.1 L744.4,579.1 L743.0,579.6 L742.0,581.6 L739.4,575.9 L744.6,569.2 L743.9,568.5 L744.9,567.0 L744.2,565.1 L744.5,563.0 L743.1,561.8 L744.7,558.9 L743.7,556.3 L748.0,548.6 L747.5,547.0 L748.6,545.6 L747.4,543.9 L749.0,543.0 L747.8,541.4 L748.5,539.0 L747.2,539.4 L746.5,536.6 L744.9,535.7 L746.0,533.9 L745.3,534.1 L744.6,531.7 L743.5,531.3 L744.4,530.2 L742.6,529.7 L741.6,528.2 L742.5,525.0 L741.8,523.1 L740.0,519.8 L736.8,517.2 L736.8,489.7 L767.0,489.8"/><path d="M1337.5,149.5 L1339.5,149.9 L1339.3,149.2 L1341.2,151.3 L1346.1,152.0 L1346.4,154.3 L1344.5,154.6 L1346.4,157.6 L1344.8,160.2 L1348.1,164.3 L1349.5,162.6 L1352.3,163.4 L1358.2,173.7 L1350.9,179.5 L1345.8,181.0 L1343.0,183.9 L1338.2,183.6 L1337.1,185.8 L1334.8,185.4 L1333.1,187.1 L1330.1,187.5 L1328.4,191.9 L1323.1,193.2 L1320.1,195.7 L1316.6,195.6 L1316.1,196.1 L1317.5,196.7 L1317.8,198.1 L1315.1,199.9 L1314.1,201.7 L1311.9,201.3 L1308.9,198.4 L1306.7,200.1 L1304.2,199.6 L1304.7,201.3 L1302.5,202.5 L1300.8,199.7 L1298.6,200.6 L1297.6,202.5 L1295.0,202.3 L1293.5,203.8 L1290.6,204.1 L1283.7,207.4 L1278.9,212.8 L1275.4,214.7 L1275.3,217.3 L1277.2,217.0 L1278.1,218.4 L1276.8,219.6 L1274.9,217.9 L1274.0,218.9 L1273.5,219.9 L1275.2,221.3 L1274.2,223.6 L1271.1,219.5 L1268.3,218.1 L1268.7,215.4 L1264.7,211.0 L1265.5,206.7 L1262.5,159.5 L1265.5,158.6 L1267.6,161.6 L1269.0,156.3 L1272.7,157.4 L1272.9,156.3 L1270.7,153.9 L1274.5,149.8 L1278.1,148.4 L1277.7,146.3 L1281.4,143.8 L1281.8,142.4 L1280.0,141.8 L1280.8,141.0 L1280.0,140.3 L1281.9,137.0 L1280.6,135.7 L1282.9,131.5 L1286.0,129.7 L1287.4,122.2 L1305.1,101.6 L1309.2,102.5 L1309.0,107.1 L1312.5,109.2 L1318.9,107.5 L1319.8,106.3 L1324.4,106.3 L1324.8,104.4 L1327.7,104.4 L1337.9,112.2 L1338.1,142.4 L1338.8,143.1 L1337.6,144.0 L1338.7,145.6 L1337.5,146.4 L1337.5,149.5"/><path d="M1179.1,167.9 L1210.7,167.4 L1210.8,169.9 L1209.8,171.8 L1211.0,173.4 L1209.7,178.0 L1211.9,182.8 L1210.9,184.8 L1211.4,187.5 L1209.6,189.5 L1208.6,193.4 L1210.6,200.7 L1208.7,205.7 L1209.5,206.2 L1210.1,204.7 L1211.6,204.6 L1213.1,207.1 L1211.9,226.8 L1212.5,228.3 L1207.0,246.0 L1206.0,267.3 L1207.5,269.5 L1201.9,272.5 L1203.5,275.5 L1204.6,276.5 L1243.1,266.9 L1246.3,270.3 L1246.2,274.2 L1232.9,280.1 L1212.3,287.3 L1190.5,289.3 L1189.8,288.4 L1191.1,285.1 L1194.4,284.6 L1198.1,275.3 L1179.8,265.6 L1178.8,263.6 L1173.2,262.3 L1171.1,258.9 L1171.8,258.6 L1171.6,255.0 L1170.4,254.4 L1171.2,253.3 L1168.9,251.8 L1166.9,252.0 L1166.4,250.0 L1164.6,248.3 L1063.8,248.4 L1063.8,234.5 L1081.2,226.7 L1083.4,224.2 L1083.1,222.9 L1080.8,221.6 L1081.1,219.7 L1079.5,219.4 L1080.3,217.6 L1079.9,214.6 L1076.6,209.4 L1088.4,204.4 L1132.1,204.5 L1139.9,192.1 L1142.7,189.2 L1145.2,188.8 L1146.2,187.0 L1151.9,184.7 L1155.2,180.8 L1166.2,171.9 L1173.4,168.2 L1176.8,167.3 L1179.1,167.9"/><path d="M1194.8,283.3 L1194.8,283.3 L1194.8,283.3 L1194.8,283.3"/><path d="M1194.6,283.5 L1194.7,283.5 L1194.7,283.6 L1194.6,283.5"/><path d="M158.0,248.5 L278.9,248.5 L278.8,404.4 L276.4,408.9 L274.3,409.2 L271.3,405.7 L266.8,405.5 L262.6,407.2 L262.9,410.2 L264.7,413.0 L263.6,414.8 L264.9,420.0 L264.3,423.0 L266.8,431.5 L266.6,433.0 L265.0,433.7 L266.1,434.6 L265.4,436.4 L199.7,376.8 L142.5,328.9 L142.5,248.5 L158.0,248.5"/><path d="M1240.5,190.4 L1240.8,192.5 L1238.8,194.8 L1239.4,195.5 L1232.4,207.4 L1232.4,213.1 L1231.4,214.7 L1231.6,219.2 L1230.8,220.0 L1231.3,221.3 L1229.3,222.7 L1228.7,225.4 L1231.0,228.8 L1212.3,228.3 L1213.1,207.1 L1211.6,204.6 L1210.1,204.7 L1209.5,206.2 L1208.7,205.7 L1210.6,200.7 L1208.6,193.4 L1209.6,189.5 L1211.4,187.5 L1210.9,184.8 L1211.9,182.8 L1209.7,178.0 L1211.0,173.4 L1209.8,171.8 L1210.8,169.9 L1210.7,167.4 L1253.7,167.3 L1252.1,167.9 L1253.1,170.3 L1249.9,174.4 L1252.1,178.8 L1250.7,179.6 L1251.2,181.1 L1248.3,183.5 L1246.2,183.9 L1245.7,185.1 L1240.7,186.0 L1239.9,187.3 L1240.5,190.4"/><path d="M1229.4,270.4 L1204.6,276.5 L1203.6,275.6 L1201.9,272.5 L1207.5,269.5 L1206.0,267.3 L1207.4,247.0 L1222.9,247.3 L1222.8,248.4 L1224.2,247.4 L1246.0,247.7 L1246.3,258.5 L1245.4,266.0 L1229.4,270.4"/><path d="M1161.1,310.5 L1160.0,312.0 L1161.1,313.7 L1160.0,316.7 L1165.5,322.2 L1172.4,334.6 L1173.1,343.7 L1156.9,343.5 L1154.7,309.5 L1158.7,306.5 L1163.5,307.6 L1161.1,310.5"/><path d="M530.2,508.0 L530.2,517.0 L448.9,517.0 L448.5,520.6 L450.9,522.8 L412.5,522.8 L412.5,535.0 L393.2,535.0 L393.3,382.7 L531.7,382.7 L531.7,396.1 L530.8,396.1 L530.2,508.0"/><path d="M1106.4,394.9 L1154.6,394.8 L1156.6,403.0 L1163.4,418.7 L1162.0,430.8 L1160.9,431.9 L1159.2,431.5 L1154.3,433.3 L1149.2,436.4 L1142.7,442.4 L1138.1,448.9 L1134.0,446.0 L1129.2,446.3 L1123.3,448.0 L1115.2,453.0 L1109.0,459.9 L1106.5,466.5 L1106.5,469.0 L1105.2,469.9 L1102.6,467.4 L1100.8,467.0 L1092.7,468.3 L1065.7,441.7 L1040.1,441.3 L1040.4,438.1 L1036.9,433.6 L1034.5,435.2 L1034.6,432.4 L1004.0,431.6 L1003.6,430.7 L1002.5,432.0 L996.9,433.0 L995.2,434.6 L987.1,436.4 L959.4,436.7 L960.1,430.4 L961.6,429.2 L962.5,430.0 L965.5,429.2 L966.2,425.4 L969.5,422.5 L972.3,421.2 L978.2,421.3 L986.0,415.9 L989.8,415.6 L992.0,412.8 L991.5,411.5 L994.1,411.5 L994.8,409.5 L997.9,407.8 L999.0,408.6 L998.5,410.4 L999.8,410.8 L1004.4,406.4 L1007.7,405.3 L1009.1,405.5 L1009.6,406.8 L1011.8,406.3 L1015.9,400.5 L1017.3,399.8 L1019.2,400.6 L1018.4,398.5 L1019.9,393.8 L1051.6,394.9 L1106.4,394.9"/><path d="M839.6,134.7 L850.2,137.1 L859.8,141.2 L863.4,140.3 L872.8,143.0 L873.6,144.3 L872.2,146.0 L878.0,147.5 L880.1,149.4 L879.2,150.3 L880.3,151.9 L879.0,152.6 L879.9,154.3 L877.7,158.2 L883.0,157.8 L881.1,162.4 L882.9,164.8 L887.9,165.7 L888.8,162.3 L894.1,158.2 L895.7,155.8 L903.7,155.8 L915.2,161.4 L909.5,165.5 L905.2,170.9 L897.8,191.0 L895.4,201.7 L894.7,211.3 L897.6,235.1 L814.6,234.7 L813.1,231.2 L805.2,228.5 L804.2,224.6 L803.1,224.0 L802.4,218.0 L805.1,214.6 L801.5,211.6 L801.5,207.7 L800.2,203.5 L800.9,200.6 L798.1,196.3 L786.4,189.2 L784.3,184.8 L778.3,182.7 L775.9,179.7 L771.0,179.3 L765.1,174.4 L766.4,169.4 L765.2,166.1 L766.6,164.6 L766.1,160.0 L768.8,155.9 L766.5,152.9 L763.3,152.3 L763.7,148.4 L765.6,147.2 L767.4,143.7 L771.6,141.3 L772.8,141.6 L773.7,140.2 L775.5,140.4 L776.8,138.9 L776.9,123.0 L778.8,123.3 L779.2,121.6 L781.5,120.7 L783.1,121.9 L814.4,105.7 L830.3,106.2 L819.8,125.6 L824.4,127.4 L826.6,131.8 L839.6,134.7"/><path d="M109.5,149.0 L114.6,149.7 L115.1,151.1 L116.2,151.4 L118.1,150.2 L122.0,150.4 L127.9,147.7 L131.4,149.1 L137.6,148.2 L143.3,145.6 L150.0,144.7 L151.6,143.0 L162.5,142.7 L165.9,140.9 L213.1,141.0 L216.2,145.6 L221.5,147.5 L223.4,151.5 L218.6,159.1 L217.4,163.9 L214.6,167.1 L214.6,170.7 L212.7,173.5 L209.7,175.1 L207.8,180.2 L206.0,181.6 L205.6,184.0 L206.8,185.5 L206.1,186.6 L206.6,187.2 L211.7,188.1 L211.8,189.3 L213.6,190.2 L211.7,192.3 L212.7,194.9 L211.7,195.3 L212.0,196.8 L210.4,199.2 L210.6,248.3 L55.2,248.5 L43.4,248.4 L42.3,247.6 L39.9,242.3 L39.6,237.7 L37.8,236.1 L40.2,233.5 L40.0,231.8 L34.8,227.6 L38.7,221.5 L40.2,216.1 L40.0,212.6 L43.4,208.0 L46.0,195.8 L47.8,178.9 L47.6,172.2 L49.9,163.3 L49.1,158.5 L50.1,156.6 L49.4,155.1 L50.6,149.5 L49.3,147.6 L50.0,145.1 L48.8,142.4 L50.8,140.1 L49.7,136.4 L47.2,133.8 L50.1,133.8 L50.3,132.8 L53.8,134.5 L62.3,133.6 L65.3,136.9 L71.1,135.9 L76.0,138.6 L78.1,141.9 L79.2,150.1 L86.6,152.6 L90.7,153.1 L101.0,148.7 L107.4,148.2 L109.5,149.0"/><path d="M693.4,264.7 L693.0,266.0 L694.9,267.1 L694.2,267.8 L693.6,267.2 L693.6,269.8 L695.6,270.5 L694.7,271.0 L694.7,273.6 L696.4,278.1 L694.6,282.7 L697.7,285.8 L697.4,287.9 L699.9,287.4 L698.9,288.5 L700.6,292.9 L699.8,293.7 L703.9,295.5 L703.9,297.1 L705.9,298.9 L705.4,301.0 L707.8,302.1 L553.4,302.0 L553.4,275.2 L507.6,275.2 L507.6,221.5 L634.8,221.5 L636.0,223.4 L645.9,227.9 L647.7,227.5 L649.7,225.0 L653.4,225.7 L662.1,225.0 L666.1,227.6 L669.6,227.9 L670.0,229.0 L671.2,228.6 L673.5,229.4 L673.8,230.4 L676.2,230.7 L675.7,232.1 L678.0,234.7 L683.1,235.6 L682.4,238.9 L684.5,241.5 L684.0,243.8 L685.8,245.3 L685.7,247.0 L686.9,247.5 L686.5,248.4 L689.0,249.1 L688.3,251.0 L690.5,253.8 L689.6,255.4 L690.3,256.3 L689.2,256.9 L689.8,260.7 L691.0,261.6 L692.0,260.7 L691.7,262.4 L693.8,263.0 L693.4,264.7"/><path d="M1033.3,529.9 L1031.1,533.2 L1031.1,537.3 L1030.1,539.3 L1028.7,539.8 L1028.8,541.4 L1027.3,542.9 L1028.4,544.7 L1026.3,550.2 L1027.5,551.6 L1021.5,551.5 L1013.7,548.5 L1013.1,549.8 L1012.0,549.6 L1011.5,551.2 L1012.4,555.6 L1011.0,561.2 L1008.1,560.6 L1007.0,556.3 L1007.6,555.5 L946.9,551.6 L945.7,550.2 L943.0,541.0 L941.4,538.9 L942.9,529.3 L940.6,522.9 L940.8,519.9 L942.7,516.4 L942.4,513.5 L946.4,510.1 L943.7,508.3 L944.7,505.6 L941.4,499.8 L941.0,496.2 L939.6,493.9 L930.0,436.8 L987.3,436.5 L987.1,438.2 L982.6,441.4 L981.8,445.0 L986.0,447.1 L988.8,450.3 L992.9,451.1 L996.1,459.2 L999.8,464.8 L1005.1,468.1 L1008.3,473.5 L1014.2,477.7 L1013.9,480.9 L1016.0,481.9 L1015.9,483.5 L1017.8,484.3 L1018.2,486.2 L1024.2,489.9 L1023.9,491.9 L1025.9,495.1 L1025.6,498.2 L1026.4,499.5 L1025.8,500.1 L1031.1,504.6 L1030.7,505.7 L1032.5,508.0 L1031.8,510.5 L1032.8,511.8 L1032.8,513.9 L1035.3,514.3 L1040.4,517.1 L1034.1,524.7 L1033.3,529.9"/><path d="M940.9,523.4 L942.9,529.4 L941.4,538.9 L943.8,543.9 L884.3,544.0 L883.5,547.5 L885.9,550.9 L888.8,552.6 L889.0,554.3 L887.7,557.0 L889.6,559.0 L886.5,562.0 L887.7,562.4 L886.2,563.1 L886.2,564.6 L874.1,566.9 L871.4,565.4 L866.4,566.5 L864.3,519.9 L872.9,439.3 L870.5,436.2 L930.0,436.8 L939.6,493.9 L941.0,496.2 L941.4,499.8 L944.7,505.6 L943.7,508.3 L946.4,510.1 L942.4,513.5 L942.7,516.4 L940.8,519.9 L940.9,523.4"/><path d="M336.9,248.3 L347.5,248.3 L347.5,275.3 L393.2,275.2 L393.3,382.7 L278.7,382.7 L278.9,248.5 L336.9,248.3"/><path d="M1046.4,277.9 L1046.4,284.9 L1043.0,286.4 L1044.7,289.3 L1043.8,291.6 L1044.6,293.5 L1041.4,300.0 L1041.0,304.4 L1039.8,304.3 L1040.2,305.7 L1038.4,308.4 L1039.3,309.8 L1038.2,312.3 L1036.0,313.1 L1030.5,318.5 L1026.8,319.8 L1025.0,318.0 L1022.7,319.8 L1022.4,321.7 L1019.8,321.7 L1018.1,324.1 L1018.3,326.3 L1016.8,326.8 L1017.9,328.5 L1018.0,331.0 L1016.5,330.4 L1014.8,332.3 L1014.1,329.3 L1011.7,328.3 L1009.3,331.7 L1009.2,333.2 L1007.4,334.7 L1008.5,339.5 L1005.9,340.3 L1005.0,343.9 L999.2,344.8 L996.6,341.2 L993.3,340.0 L992.2,335.5 L988.9,336.3 L986.1,339.2 L982.8,339.8 L981.4,338.2 L977.7,336.9 L975.3,337.6 L974.3,339.0 L972.0,338.2 L969.7,335.4 L961.9,334.2 L959.7,328.7 L957.0,327.5 L956.4,325.7 L952.8,327.0 L949.7,325.0 L948.0,326.1 L948.3,256.5 L980.1,255.5 L987.1,249.4 L988.1,252.0 L996.9,257.0 L1003.4,257.0 L1029.7,242.5 L1046.4,239.5 L1046.4,277.9"/><path d="M696.9,382.7 L723.6,382.7 L723.6,396.1 L727.9,425.9 L726.5,473.4 L724.8,473.3 L725.3,472.6 L724.3,472.8 L725.0,472.2 L724.3,471.7 L722.5,472.3 L723.0,471.3 L720.9,471.6 L721.0,470.7 L719.7,470.4 L720.3,469.7 L717.9,470.1 L715.6,467.0 L713.8,467.0 L713.3,465.5 L712.8,466.5 L713.1,465.4 L712.1,465.9 L709.9,464.3 L708.3,466.7 L702.4,466.5 L701.3,464.8 L695.9,467.7 L693.7,466.4 L691.9,466.7 L691.6,467.6 L688.6,467.7 L687.7,469.9 L685.3,469.5 L684.0,471.7 L682.3,469.3 L680.5,469.4 L679.8,468.0 L677.6,467.4 L678.5,466.1 L676.7,465.5 L676.0,467.6 L674.5,468.0 L673.8,466.8 L672.0,467.0 L671.0,464.4 L669.5,464.5 L668.6,467.4 L667.1,467.3 L668.0,468.2 L667.0,468.6 L667.1,470.3 L666.0,470.9 L664.7,469.7 L664.4,468.2 L665.3,467.4 L664.3,465.6 L663.2,467.0 L662.0,466.3 L661.5,467.2 L661.5,466.4 L660.6,468.1 L659.3,468.2 L658.5,467.5 L658.5,465.9 L655.8,466.0 L655.6,464.5 L653.7,463.5 L650.0,467.1 L646.9,466.5 L647.4,463.6 L644.2,463.2 L643.7,459.2 L642.3,460.2 L637.8,459.1 L636.7,461.0 L635.1,461.6 L632.5,459.0 L628.9,459.9 L623.6,457.4 L618.9,457.5 L618.6,454.2 L614.8,451.0 L614.0,453.3 L610.2,452.1 L609.6,453.2 L607.4,453.1 L602.2,447.8 L600.4,448.3 L600.4,396.1 L531.7,396.1 L531.7,382.7 L696.9,382.7"/><path d="M967.0,393.7 L1020.6,393.1 L1018.4,398.5 L1019.2,400.6 L1017.3,399.8 L1015.9,400.5 L1011.8,406.3 L1009.6,406.8 L1009.1,405.5 L1007.7,405.3 L1004.4,406.4 L999.8,410.8 L998.5,410.4 L999.0,408.6 L997.9,407.8 L994.8,409.5 L994.1,411.5 L991.5,411.5 L992.0,412.8 L989.8,415.6 L986.0,415.9 L978.2,421.3 L972.3,421.2 L969.5,422.5 L966.2,425.4 L965.5,429.2 L962.5,430.0 L961.6,429.2 L960.1,430.4 L959.4,436.7 L822.3,436.4 L822.7,435.3 L824.6,435.7 L825.6,433.1 L827.8,432.7 L826.7,431.4 L827.6,430.7 L827.3,429.8 L825.5,428.9 L826.8,428.2 L827.5,426.1 L826.4,425.3 L826.2,426.3 L825.3,426.1 L826.9,423.6 L827.8,423.9 L828.1,426.0 L829.3,424.9 L828.3,422.9 L828.7,421.5 L831.5,422.5 L830.3,420.6 L832.8,418.7 L831.1,418.7 L830.3,416.9 L833.4,416.4 L834.4,414.8 L836.3,414.4 L834.6,413.2 L835.2,411.9 L837.5,412.6 L835.5,409.5 L838.7,405.5 L836.1,403.1 L840.0,402.8 L838.1,400.9 L840.5,399.9 L839.9,396.2 L841.2,396.2 L841.5,397.3 L845.4,395.9 L873.9,396.2 L873.5,391.3 L878.6,391.7 L878.5,392.5 L909.7,392.0 L967.0,393.7"/><path d="M455.7,275.2 L347.5,275.3 L347.3,167.7 L507.5,167.8 L507.6,275.2 L455.7,275.2"/><path d="M1258.5,228.5 L1260.2,228.5 L1260.6,226.6 L1262.9,226.7 L1263.7,225.3 L1266.6,224.5 L1270.5,224.8 L1270.9,228.7 L1275.1,229.3 L1275.8,231.5 L1273.4,234.1 L1271.5,240.8 L1272.6,243.6 L1273.4,244.6 L1283.3,244.7 L1286.4,245.9 L1289.2,249.4 L1290.5,255.4 L1288.9,260.9 L1286.7,262.5 L1284.4,261.7 L1285.5,258.7 L1278.2,260.2 L1275.6,261.8 L1278.3,263.2 L1278.5,265.3 L1281.2,264.6 L1284.1,265.9 L1285.0,265.7 L1285.1,263.6 L1287.1,263.5 L1289.7,267.4 L1289.2,269.3 L1284.8,270.1 L1279.4,267.8 L1274.2,267.1 L1271.2,267.4 L1269.3,269.8 L1267.5,269.4 L1266.8,265.3 L1264.6,265.8 L1262.4,263.6 L1261.3,257.5 L1256.6,253.8 L1255.7,247.8 L1224.2,247.4 L1222.8,248.4 L1222.9,247.3 L1207.2,247.0 L1207.0,246.0 L1212.5,228.3 L1257.6,229.6 L1258.5,228.5"/><path d="M1128.9,394.7 L1055.5,395.0 L1019.9,393.8 L1020.6,393.1 L974.2,393.4 L977.5,391.7 L986.5,389.6 L988.0,386.6 L992.4,385.6 L992.7,383.3 L996.0,381.5 L996.0,379.4 L1004.5,375.5 L1013.3,368.2 L1014.2,368.9 L1012.6,370.0 L1014.0,370.9 L1014.2,373.0 L1019.9,377.3 L1022.7,377.1 L1027.1,373.6 L1030.3,376.4 L1037.7,374.2 L1038.9,373.4 L1038.1,372.4 L1038.7,371.2 L1040.7,372.7 L1045.7,370.0 L1046.6,369.7 L1047.4,371.3 L1051.2,369.2 L1051.9,368.3 L1050.8,367.5 L1053.3,365.8 L1051.5,364.1 L1054.6,359.2 L1058.3,356.0 L1060.2,350.9 L1063.2,348.6 L1062.7,347.6 L1064.6,346.0 L1066.4,339.9 L1068.9,341.0 L1070.3,343.5 L1074.7,344.6 L1078.2,338.2 L1079.1,338.1 L1081.2,333.1 L1084.2,335.3 L1086.1,332.0 L1089.7,329.4 L1090.3,329.9 L1091.5,328.5 L1091.0,328.1 L1094.9,324.5 L1094.1,323.6 L1096.4,319.6 L1095.7,319.3 L1096.2,316.4 L1108.1,325.4 L1110.3,320.5 L1114.0,320.7 L1116.5,322.9 L1115.1,325.7 L1121.3,328.2 L1121.4,329.4 L1123.6,329.9 L1126.1,332.4 L1126.0,336.5 L1124.2,337.4 L1124.0,338.8 L1121.4,339.9 L1119.9,342.5 L1119.6,344.2 L1120.7,346.7 L1126.1,345.0 L1126.8,345.8 L1126.4,347.6 L1128.2,350.2 L1130.7,351.4 L1136.1,351.8 L1138.1,355.1 L1144.5,358.9 L1148.7,357.1 L1151.2,357.3 L1151.0,358.3 L1154.5,358.2 L1158.0,357.2 L1158.5,356.0 L1169.0,355.1 L1165.9,360.2 L1163.3,360.6 L1162.2,362.0 L1158.1,373.5 L1155.3,378.5 L1152.4,381.2 L1151.6,384.4 L1154.6,394.8 L1128.9,394.7"/><path d="M1124.3,330.7 L1126.1,329.1 L1129.1,331.8 L1126.1,334.5 L1126.1,332.4 L1124.3,330.7"/><path d="M695.2,208.0 L801.5,208.0 L801.7,212.0 L805.1,214.6 L802.5,217.8 L802.4,219.7 L805.0,228.2 L807.6,229.9 L813.2,231.3 L814.8,234.4 L814.4,235.5 L819.2,238.8 L820.4,242.2 L825.5,245.1 L826.2,248.3 L825.2,253.5 L822.3,255.2 L821.5,259.4 L818.8,261.1 L805.4,264.1 L803.9,268.7 L807.7,272.6 L807.6,276.4 L804.3,280.0 L803.6,284.1 L798.7,285.6 L797.2,287.2 L798.1,288.7 L797.5,291.8 L795.4,291.8 L794.4,289.8 L789.8,285.6 L697.3,286.4 L697.1,284.7 L694.5,282.4 L695.8,281.1 L695.4,278.9 L696.4,278.1 L694.7,273.6 L694.7,271.0 L695.6,270.5 L693.7,269.9 L693.6,267.2 L694.9,267.2 L693.0,265.9 L693.8,263.0 L691.7,262.4 L691.9,260.6 L691.0,261.6 L689.8,260.7 L689.2,256.9 L690.3,256.3 L689.6,255.4 L690.5,253.9 L688.3,251.0 L689.0,249.1 L686.6,248.4 L686.9,247.4 L685.7,247.1 L685.8,245.3 L684.0,243.7 L684.5,241.5 L682.4,238.9 L683.1,235.6 L681.1,235.2 L680.2,231.4 L677.4,228.5 L680.6,222.6 L680.1,220.4 L682.0,218.2 L681.1,215.5 L679.2,215.5 L678.6,214.2 L679.9,213.3 L680.0,211.1 L678.4,209.8 L678.3,208.0 L695.2,208.0"/><path d="M354.2,382.6 L393.3,382.7 L393.2,535.0 L346.8,535.0 L261.2,503.8 L261.4,500.4 L263.8,497.0 L267.5,496.9 L269.1,494.3 L269.1,490.9 L268.2,489.5 L264.7,489.3 L263.7,487.8 L264.5,483.2 L263.1,482.1 L263.9,480.7 L263.3,479.3 L265.1,479.0 L267.9,475.3 L267.7,472.0 L268.5,471.1 L267.6,465.0 L269.8,462.7 L270.3,460.4 L276.9,456.2 L275.8,453.9 L271.0,451.0 L271.1,449.1 L269.1,444.2 L265.3,439.8 L265.2,435.7 L266.1,434.6 L265.0,433.7 L266.6,433.0 L266.8,431.5 L264.3,423.0 L264.9,420.0 L263.6,414.8 L264.7,413.0 L262.9,410.2 L262.6,407.2 L265.4,405.7 L270.6,405.6 L274.3,409.2 L276.7,408.5 L278.8,404.4 L278.7,382.7 L354.2,382.6"/><path d="M636.5,461.1 L637.8,459.1 L642.3,460.2 L643.7,459.2 L644.2,463.2 L647.4,463.5 L646.6,466.0 L649.1,467.4 L653.7,463.5 L655.6,464.5 L655.8,466.0 L658.5,465.9 L658.5,467.5 L659.3,468.2 L660.6,468.1 L661.5,466.4 L661.5,467.2 L662.0,466.3 L663.2,467.0 L664.3,465.6 L665.3,467.4 L664.4,468.2 L664.7,469.7 L666.2,470.9 L667.1,470.2 L667.0,468.6 L668.0,468.2 L667.1,467.2 L668.2,467.7 L669.4,466.3 L669.4,464.5 L671.0,464.4 L672.0,467.1 L673.8,466.8 L674.5,468.0 L675.9,467.7 L676.9,465.5 L678.6,466.2 L677.6,467.5 L679.8,468.0 L680.5,469.4 L682.3,469.3 L684.0,471.7 L685.3,469.5 L687.7,469.9 L688.6,467.7 L691.6,467.6 L691.9,466.7 L693.7,466.4 L695.9,467.7 L701.3,464.8 L702.4,466.5 L708.3,466.7 L709.9,464.3 L712.1,465.9 L713.1,465.4 L712.8,466.5 L713.3,465.5 L713.8,467.0 L715.6,467.0 L718.1,470.2 L720.3,469.7 L719.7,470.4 L721.0,470.7 L720.9,471.6 L723.0,471.3 L722.8,472.4 L724.3,471.7 L725.0,472.2 L724.3,472.8 L725.2,472.4 L724.7,473.3 L725.8,472.9 L725.7,473.6 L727.5,472.9 L727.0,474.0 L729.0,474.5 L728.9,475.5 L732.2,474.3 L732.0,475.2 L733.3,475.3 L732.8,474.6 L733.6,474.2 L734.9,475.4 L736.1,474.5 L736.8,475.3 L736.8,517.2 L740.0,519.8 L741.8,523.1 L742.5,525.0 L741.6,528.2 L742.6,529.7 L744.4,530.2 L743.5,531.3 L744.6,531.7 L745.3,534.1 L746.0,533.9 L744.9,535.7 L746.5,536.6 L747.2,539.4 L748.5,539.0 L747.8,541.4 L749.0,543.0 L747.4,543.9 L748.6,545.6 L747.5,547.0 L748.0,548.6 L743.7,556.3 L744.7,558.9 L743.1,561.8 L744.5,563.0 L744.2,565.1 L744.9,567.0 L743.9,568.5 L744.6,569.2 L739.4,575.9 L742.0,581.6 L737.0,580.9 L723.5,587.0 L722.9,589.8 L712.9,595.8 L707.3,602.2 L686.6,613.2 L683.4,616.7 L674.9,622.4 L670.0,627.9 L664.5,638.0 L661.8,648.4 L662.2,655.8 L666.2,671.6 L667.0,679.3 L662.6,679.4 L660.5,680.7 L660.6,682.6 L657.2,681.3 L653.9,677.2 L652.2,677.7 L649.4,676.4 L641.8,676.8 L636.0,672.2 L635.2,672.9 L631.9,671.3 L630.8,671.9 L627.7,668.3 L625.7,668.8 L625.0,667.7 L624.6,668.3 L621.4,667.5 L617.1,655.6 L613.1,650.8 L613.2,644.7 L611.0,642.9 L612.3,638.5 L611.2,638.0 L611.6,636.1 L609.7,634.2 L607.0,633.7 L603.2,629.9 L602.0,625.0 L600.6,624.7 L598.5,620.6 L595.6,619.4 L593.7,617.1 L592.0,611.7 L592.8,611.1 L591.5,610.7 L591.3,608.8 L589.0,606.7 L588.2,602.9 L585.7,600.0 L584.9,594.9 L582.7,593.1 L581.8,590.6 L577.3,587.8 L576.1,585.3 L571.7,583.7 L571.8,580.9 L570.5,582.1 L570.6,580.2 L569.2,580.2 L568.3,576.9 L565.2,577.3 L565.0,575.8 L562.7,577.4 L559.1,576.7 L558.8,575.8 L552.9,576.5 L547.4,574.0 L545.7,577.2 L543.5,576.5 L542.1,577.6 L541.6,576.9 L539.2,577.6 L536.1,583.6 L536.0,586.9 L534.4,588.3 L533.9,590.7 L534.8,591.6 L531.8,592.8 L529.4,596.0 L529.0,598.1 L525.1,598.2 L524.1,596.5 L522.9,597.1 L520.9,595.8 L519.0,593.4 L515.3,592.8 L513.8,590.5 L508.0,589.1 L505.0,587.0 L504.0,584.7 L497.2,580.6 L493.2,572.7 L492.7,564.5 L489.1,560.3 L487.7,554.5 L481.0,549.1 L476.8,547.9 L476.8,546.9 L473.1,544.2 L472.1,541.7 L468.2,539.4 L464.1,534.1 L458.3,531.4 L454.3,524.3 L451.8,523.8 L448.2,519.9 L449.0,519.2 L448.9,517.0 L530.2,517.0 L530.8,396.1 L600.4,396.1 L600.4,448.3 L602.2,447.8 L607.4,453.1 L609.6,453.2 L610.2,452.1 L614.0,453.3 L615.1,451.0 L618.6,454.2 L619.0,457.5 L623.6,457.4 L628.9,459.9 L632.5,459.0 L635.0,461.6 L636.5,461.1"/><path d="M623.3,60.2 L663.8,60.2 L664.7,65.2 L667.0,68.7 L665.1,72.0 L666.2,73.1 L665.4,74.3 L666.2,74.4 L665.6,75.3 L666.3,75.9 L665.4,76.6 L666.5,79.2 L665.8,79.9 L666.3,81.1 L665.6,81.2 L666.4,81.5 L665.7,83.3 L672.5,97.9 L672.0,102.7 L672.8,103.5 L673.4,112.9 L672.8,113.8 L674.7,116.0 L673.6,119.0 L674.2,120.2 L673.7,123.9 L674.9,125.2 L675.5,129.0 L678.3,132.0 L679.1,142.6 L507.8,142.3 L507.7,60.2 L623.3,60.2"/><path d="M999.6,377.4 L996.0,379.4 L995.4,382.0 L992.7,383.3 L992.4,385.7 L988.0,386.6 L986.5,389.6 L977.5,391.7 L973.8,393.9 L909.7,392.0 L878.5,392.5 L878.6,391.7 L873.5,391.3 L873.9,396.2 L842.7,396.1 L843.9,392.8 L846.9,394.3 L848.6,391.7 L847.7,389.9 L849.6,389.1 L848.2,387.3 L849.1,386.8 L850.0,383.8 L848.1,381.6 L850.3,378.3 L853.8,376.6 L862.2,380.7 L864.6,380.7 L865.4,378.6 L863.3,375.1 L864.3,372.2 L873.6,369.6 L871.5,364.9 L874.5,361.2 L876.3,361.9 L877.3,361.0 L876.5,359.1 L877.4,357.8 L879.0,359.1 L882.6,358.5 L882.5,360.2 L883.3,360.5 L884.7,359.3 L883.7,358.0 L884.4,356.5 L886.4,358.3 L888.6,357.3 L894.3,360.1 L895.5,361.7 L896.6,361.0 L897.3,358.3 L902.2,355.8 L904.2,358.6 L906.1,358.3 L906.3,360.0 L907.5,357.9 L909.3,357.7 L908.9,355.0 L911.0,354.0 L910.4,352.6 L913.5,352.2 L912.3,351.2 L912.7,350.5 L914.7,352.0 L914.8,354.3 L920.1,356.9 L922.6,355.2 L923.1,351.3 L924.9,348.4 L928.3,347.8 L929.9,344.0 L934.2,341.4 L933.9,336.2 L937.6,335.9 L939.9,337.3 L944.0,334.9 L948.1,334.7 L947.7,333.5 L948.8,332.2 L946.7,331.4 L947.7,329.7 L946.2,327.4 L949.6,325.0 L952.6,327.0 L956.4,325.7 L957.0,327.5 L959.7,328.7 L961.9,334.2 L969.7,335.4 L972.0,338.2 L974.3,339.0 L975.3,337.6 L977.7,336.9 L981.3,338.2 L982.9,339.8 L986.2,339.2 L989.0,336.3 L992.4,335.6 L993.3,340.0 L996.6,341.2 L998.7,343.5 L999.4,348.7 L997.8,351.4 L1000.6,355.8 L1001.9,356.2 L1001.0,357.6 L1002.9,358.9 L1003.4,360.9 L1005.4,362.1 L1005.6,364.5 L1007.6,365.9 L1008.5,365.3 L1009.5,367.9 L1013.3,368.1 L1004.5,375.5 L999.6,377.4"/><path d="M839.2,394.7 L840.1,393.9 L841.6,395.3 L839.9,396.2 L839.2,394.7"/><path d="M1109.7,320.0 L1110.5,320.3 L1108.1,325.4 L1096.2,316.4 L1095.7,319.3 L1096.4,319.6 L1094.1,323.6 L1094.9,324.5 L1091.0,328.1 L1091.5,328.5 L1090.3,329.9 L1089.7,329.4 L1086.1,332.0 L1084.2,335.3 L1081.2,333.1 L1079.1,338.1 L1078.2,338.2 L1074.7,344.6 L1070.3,343.5 L1068.9,341.0 L1066.4,339.9 L1064.6,346.0 L1062.7,347.6 L1063.2,348.6 L1060.2,350.9 L1058.3,356.0 L1054.6,359.2 L1051.5,364.1 L1053.3,365.8 L1050.8,367.5 L1051.9,368.3 L1051.5,369.0 L1047.4,371.3 L1046.6,369.7 L1045.7,370.0 L1040.7,372.7 L1038.7,371.2 L1038.1,372.4 L1038.9,373.4 L1036.7,374.7 L1030.3,376.4 L1027.1,373.6 L1022.7,377.1 L1019.9,377.3 L1018.1,375.3 L1016.0,375.0 L1014.2,373.0 L1014.0,370.9 L1012.6,370.1 L1014.2,368.8 L1009.5,367.8 L1008.5,365.3 L1007.6,365.9 L1005.6,364.5 L1005.4,362.1 L1003.4,360.9 L1002.9,358.9 L1001.0,357.6 L1001.9,356.2 L1000.6,355.8 L997.8,351.4 L999.4,348.7 L999.0,344.5 L1005.0,343.9 L1005.9,340.3 L1008.5,339.6 L1007.4,334.7 L1009.2,333.2 L1009.3,331.7 L1011.7,328.3 L1014.1,329.3 L1014.8,332.3 L1016.5,330.4 L1018.0,331.0 L1017.9,328.5 L1016.8,326.8 L1018.3,326.3 L1018.1,324.1 L1019.8,321.7 L1022.4,321.7 L1022.7,319.8 L1025.0,318.0 L1026.8,319.8 L1030.5,318.5 L1036.0,313.1 L1038.2,312.3 L1039.3,309.8 L1038.4,308.4 L1040.2,305.7 L1039.8,304.3 L1041.0,304.4 L1041.4,300.0 L1044.6,293.5 L1043.8,291.6 L1044.7,289.3 L1043.0,286.5 L1044.0,285.4 L1046.4,284.9 L1046.4,309.6 L1070.3,309.6 L1070.1,323.4 L1077.5,318.5 L1078.9,316.2 L1082.2,317.1 L1086.4,311.6 L1087.3,312.4 L1086.6,313.1 L1088.3,314.3 L1093.3,315.1 L1094.6,314.2 L1093.7,313.1 L1095.1,313.2 L1094.3,312.2 L1098.0,312.3 L1100.1,310.2 L1105.4,313.2 L1105.5,312.3 L1107.9,312.7 L1107.9,313.7 L1106.7,314.0 L1107.3,315.1 L1108.1,314.8 L1107.7,315.6 L1109.5,315.6 L1108.6,317.2 L1110.1,318.2 L1109.7,320.0"/><path d="M1054.1,695.8 L1047.7,706.3 L1034.1,714.9 L1032.0,714.6 L1023.6,716.8 L1023.1,718.9 L1019.5,720.4 L1017.3,718.7 L1017.1,720.5 L1014.3,721.4 L1011.0,717.9 L1008.7,718.6 L1007.6,717.8 L1007.6,716.3 L1005.0,716.3 L1007.9,712.2 L1011.9,712.5 L1015.0,711.5 L1024.3,706.0 L1031.5,706.0 L1028.7,702.5 L1027.6,699.1 L1028.0,694.6 L1025.7,690.3 L1022.2,686.7 L1017.9,686.3 L1015.4,682.7 L1013.4,676.8 L1012.4,670.6 L1008.7,670.5 L1005.2,667.6 L1002.3,657.7 L991.9,638.5 L991.1,635.7 L991.6,633.0 L989.2,627.8 L989.2,617.9 L992.0,614.9 L993.3,609.1 L991.4,603.9 L990.9,598.6 L987.5,599.1 L985.1,597.8 L981.5,589.8 L977.3,586.5 L976.3,582.5 L973.5,580.3 L971.8,576.4 L965.3,572.4 L963.1,572.9 L960.8,577.0 L957.1,577.6 L950.5,582.8 L942.5,585.9 L937.9,583.5 L933.6,583.3 L931.4,580.2 L930.3,575.1 L927.6,572.5 L920.8,567.9 L913.9,565.2 L904.6,564.2 L886.2,567.4 L886.2,563.1 L887.7,562.4 L886.5,562.1 L889.6,559.0 L887.7,557.0 L889.0,554.3 L888.8,552.6 L885.9,550.9 L883.5,547.5 L884.3,544.0 L943.8,543.9 L945.8,550.5 L946.9,551.6 L1007.6,555.5 L1007.0,556.3 L1008.8,561.2 L1011.7,560.8 L1012.4,555.6 L1011.5,551.2 L1012.0,549.6 L1013.1,549.8 L1013.7,548.5 L1021.5,551.5 L1027.5,551.6 L1026.8,556.2 L1028.2,559.8 L1027.8,562.7 L1031.2,577.2 L1037.6,593.8 L1046.3,608.2 L1047.6,612.1 L1045.9,617.2 L1046.9,622.5 L1050.7,630.9 L1058.9,656.8 L1055.7,691.0 L1056.1,692.3 L1054.1,695.8"/><path d="M987.1,715.1 L988.7,712.1 L992.6,710.6 L996.3,711.2 L997.9,714.4 L997.5,716.3 L989.6,716.3 L989.6,719.2 L987.7,717.6 L987.1,715.1"/><path d="M877.6,348.2 L876.6,347.9 L876.0,349.4 L875.4,348.9 L875.7,350.4 L877.2,351.4 L874.8,353.1 L876.1,353.5 L874.2,354.6 L875.0,355.0 L874.9,356.7 L873.6,357.8 L874.9,358.7 L872.9,358.5 L874.6,360.3 L873.1,360.7 L874.5,361.2 L871.5,364.9 L873.7,369.5 L864.4,372.0 L863.3,375.1 L865.4,378.6 L864.6,380.7 L862.2,380.7 L852.8,376.5 L848.3,380.9 L849.2,383.2 L848.0,383.4 L846.4,380.8 L845.2,380.8 L846.4,382.3 L845.6,382.9 L843.5,381.5 L841.7,376.0 L840.4,375.1 L842.6,372.3 L840.4,368.3 L840.4,367.0 L841.4,366.8 L840.4,364.1 L837.1,362.5 L836.9,361.2 L833.0,358.4 L830.6,359.0 L829.9,357.8 L831.1,356.9 L826.8,355.1 L821.1,349.9 L820.9,346.8 L825.1,339.4 L824.5,336.4 L826.8,333.0 L819.3,329.8 L816.8,332.4 L815.1,332.0 L813.0,327.6 L813.8,326.2 L812.6,322.1 L805.6,316.9 L804.2,314.5 L798.0,309.3 L798.2,307.7 L796.5,306.2 L796.9,304.0 L795.1,301.1 L794.9,295.7 L796.3,292.3 L797.9,291.4 L798.1,288.6 L797.3,287.1 L798.7,285.6 L803.6,284.1 L804.3,280.0 L807.3,277.2 L807.7,272.6 L803.9,268.7 L805.4,264.2 L814.3,262.8 L821.5,259.4 L822.2,255.3 L825.2,253.5 L825.8,250.8 L825.6,245.2 L820.4,242.3 L819.8,239.5 L814.6,235.7 L814.6,234.7 L897.6,235.1 L893.3,254.8 L886.1,254.8 L885.9,319.6 L883.8,320.7 L884.9,323.1 L883.0,325.3 L884.9,327.4 L884.8,329.2 L886.3,330.2 L885.4,332.7 L886.7,335.9 L883.9,338.6 L884.0,340.0 L882.7,341.2 L883.2,342.2 L880.9,343.2 L881.0,344.8 L879.2,346.5 L878.8,348.2 L878.2,347.4 L877.6,348.2"/><path d="M707.6,60.3 L711.4,60.3 L711.4,49.9 L715.9,50.3 L719.1,51.6 L722.1,63.4 L721.9,65.9 L723.0,67.1 L727.4,68.5 L731.1,68.1 L732.6,69.7 L741.4,70.2 L742.5,73.2 L750.0,72.4 L750.0,71.2 L754.8,69.8 L761.7,70.1 L766.9,72.6 L769.0,72.5 L769.2,73.6 L767.2,74.7 L773.1,76.0 L772.8,77.7 L775.1,81.2 L777.4,80.5 L776.6,78.6 L777.5,77.6 L782.3,77.5 L784.5,80.9 L790.1,81.7 L790.2,84.0 L793.7,84.2 L793.5,85.9 L800.4,85.0 L809.1,80.5 L810.2,80.7 L810.2,82.4 L811.5,82.7 L811.1,83.4 L812.1,84.7 L816.1,83.8 L820.8,84.7 L826.1,84.1 L828.8,84.8 L829.5,86.4 L831.8,87.5 L834.5,86.5 L841.2,86.7 L830.3,106.2 L814.4,105.7 L783.1,121.9 L780.9,120.7 L778.9,121.9 L779.5,122.4 L778.8,123.3 L776.9,122.9 L776.8,138.9 L775.5,140.4 L773.7,140.2 L772.8,141.6 L771.6,141.3 L767.4,143.7 L765.6,147.2 L763.7,148.4 L763.3,152.3 L766.5,152.9 L768.8,155.9 L766.1,160.0 L766.6,164.6 L765.2,166.1 L766.4,169.4 L765.1,174.4 L771.0,179.3 L775.9,179.7 L778.3,182.7 L784.3,184.8 L786.4,189.2 L792.9,193.8 L796.6,194.7 L800.9,200.6 L800.3,204.9 L801.5,208.0 L681.6,208.0 L681.6,159.6 L680.0,157.6 L676.1,156.5 L672.4,151.5 L678.7,145.6 L679.3,138.6 L678.3,132.0 L675.5,129.0 L674.9,125.2 L673.7,124.0 L674.2,120.2 L673.6,119.0 L674.7,116.0 L672.8,113.8 L673.4,112.9 L672.8,103.5 L672.0,102.7 L672.5,97.9 L665.7,83.3 L666.4,81.5 L665.6,81.2 L666.3,81.1 L665.8,79.9 L666.5,79.2 L665.4,76.6 L666.3,75.9 L665.6,75.3 L666.2,74.4 L665.4,74.3 L666.2,73.1 L665.1,72.0 L667.0,68.7 L664.7,65.2 L665.0,63.6 L663.6,60.7 L707.6,60.3"/><path d="M1155.5,322.3 L1156.9,343.5 L1173.1,343.7 L1172.3,347.5 L1169.0,355.1 L1158.5,356.0 L1158.0,357.2 L1154.5,358.2 L1151.0,358.3 L1151.2,357.3 L1148.7,357.1 L1144.5,358.9 L1138.1,355.1 L1136.1,351.8 L1130.7,351.4 L1128.2,350.2 L1126.4,347.6 L1126.8,345.8 L1126.1,345.0 L1122.9,346.6 L1120.5,346.6 L1119.7,343.1 L1121.4,339.9 L1124.0,338.8 L1124.2,337.4 L1126.0,336.5 L1126.1,334.6 L1129.1,331.8 L1126.1,329.1 L1124.3,330.7 L1121.6,329.6 L1120.0,327.6 L1116.5,326.9 L1114.9,325.1 L1116.5,322.8 L1114.0,320.7 L1109.6,319.9 L1110.1,318.2 L1108.6,317.2 L1109.5,315.6 L1107.7,315.6 L1108.1,314.8 L1107.3,315.1 L1106.7,314.0 L1107.9,313.7 L1107.8,312.7 L1105.5,312.3 L1105.4,313.2 L1100.1,310.2 L1098.0,312.3 L1094.3,312.2 L1095.1,313.2 L1093.7,313.1 L1094.6,314.2 L1093.6,314.1 L1093.4,315.1 L1091.2,315.0 L1086.7,313.3 L1086.3,312.7 L1087.3,312.4 L1086.3,312.2 L1086.6,311.5 L1082.2,317.1 L1078.9,316.2 L1077.5,318.5 L1070.4,323.5 L1070.3,309.6 L1154.7,309.5 L1155.5,322.3"/><path d="M1259.6,256.6 L1261.3,257.5 L1262.4,263.6 L1261.7,264.1 L1253.1,267.0 L1246.3,267.9 L1246.3,270.3 L1243.6,267.0 L1245.4,266.0 L1245.1,264.2 L1246.1,264.0 L1246.1,248.1 L1255.7,247.8 L1256.6,253.8 L1259.6,256.6"/><path d="M1248.8,270.9 L1250.8,267.4 L1253.2,268.9 L1253.5,271.0 L1252.5,272.3 L1250.2,272.5 L1248.8,270.9"/><path d="M225.9,60.2 L232.9,60.2 L232.9,87.7 L237.5,91.7 L237.9,93.7 L240.4,95.3 L240.1,96.4 L241.2,98.0 L239.7,99.3 L242.6,101.1 L239.6,102.6 L243.7,104.1 L245.9,106.4 L249.6,107.1 L250.1,108.9 L253.7,111.2 L255.8,114.8 L258.7,116.2 L258.2,117.7 L259.4,119.3 L261.8,119.8 L262.3,122.1 L264.6,121.0 L266.0,123.8 L272.5,123.4 L272.0,126.9 L270.6,127.4 L271.4,129.1 L270.2,130.5 L270.1,133.1 L269.1,133.7 L269.7,136.3 L267.8,137.0 L269.3,138.2 L268.2,140.0 L270.4,141.4 L270.0,142.6 L271.0,144.0 L268.2,145.0 L266.9,147.0 L268.5,148.8 L266.9,150.6 L267.5,151.4 L266.9,152.7 L269.4,152.6 L272.3,155.4 L273.7,154.7 L274.2,153.1 L277.9,151.8 L279.5,149.0 L281.3,149.1 L282.0,151.0 L284.3,151.5 L283.6,153.7 L285.2,153.7 L285.0,156.8 L286.0,157.2 L286.9,160.7 L289.7,164.4 L292.4,166.1 L292.6,168.8 L291.3,169.3 L292.3,171.4 L294.9,173.5 L297.1,172.5 L299.8,173.8 L301.6,177.5 L300.7,178.5 L302.6,180.5 L302.6,182.4 L306.1,184.9 L307.1,184.5 L306.4,183.2 L307.8,181.6 L309.2,181.1 L316.8,182.6 L317.6,180.1 L319.1,179.3 L323.2,180.6 L328.6,179.4 L329.7,180.9 L332.4,179.5 L337.8,180.1 L336.5,178.7 L336.7,177.3 L337.7,176.7 L337.3,175.6 L339.1,175.5 L339.7,174.3 L343.5,177.9 L343.3,179.1 L347.4,181.9 L347.5,248.3 L210.6,248.3 L210.4,199.2 L212.0,196.8 L211.7,195.3 L212.7,194.9 L211.7,192.3 L213.6,190.2 L211.8,189.3 L211.7,188.1 L206.6,187.2 L206.1,186.6 L206.8,185.5 L205.6,184.0 L206.0,181.6 L207.8,180.2 L209.7,175.1 L212.7,173.5 L214.6,170.7 L214.6,167.1 L217.4,163.9 L218.6,159.1 L223.5,151.3 L221.5,147.5 L216.2,145.6 L214.4,143.4 L211.6,138.6 L213.0,136.3 L211.5,132.9 L209.7,131.3 L210.4,129.6 L210.4,60.3 L225.9,60.2"/></g>
<text x="38" y="746" fill="#52645b" font-family="system-ui,sans-serif" font-size="11">State boundaries: U.S. Census Bureau TIGERweb</text></svg>